<svg width="24" height="24" viewBox="0 0 24 24" fill="currentColor" xmlns="http://www.w3.org/2000/svg">
	<defs>
		<symbol id="icon-14-alarm-silenced-a">
			<path d="M11.1409 1.51681C11.5032 0.82773 12.4968 0.827732 12.8591 1.51681L22.8888 20.5936C23.2254 21.2338 22.7573 22 22.0297 22H1.97033C1.24266 22 0.774615 21.2338 1.11121 20.5936L11.1409 1.51681Z" fill="var(--alarm-enabled-background-color)"/>
			<path d="M6.99848 10.8967L7.88021 10.015L17.3 19.2682L16.4183 20.1499L15.1363 18.868C14.4859 19.387 13.7168 19.7747 12.8788 19.9623V18.6741C13.3791 18.5303 13.8356 18.2864 14.2421 17.98L11.6281 15.366V19.487L8.50138 16.3603H6V12.6082H8.50138L8.68273 12.4206L6.99848 10.8967Z" style="fill: var(--on-alarm-active-color)"/>
			<path d="M15.7491 15.9476C15.9117 15.4911 16.0055 14.9971 16.0055 14.4843C16.0055 12.5019 14.6861 10.826 12.8788 10.2882V9C15.3864 9.56906 17.2562 11.8078 17.2562 14.4843C17.2562 15.3535 17.0561 16.1727 16.7059 16.9044L15.7491 15.9476Z" style="fill: var(--on-alarm-active-color)"/>
			<path d="M12.8788 11.9641C13.8043 12.4269 14.4422 13.3774 14.4422 14.4843C14.4422 14.5343 14.4359 14.5843 14.4297 14.6344L12.8788 13.0835V11.9641Z" style="fill: var(--on-alarm-active-color)"/>
			<path d="M10.4525 10.6572L11.6281 9.48152V11.8328L10.4525 10.6572Z" style="fill: var(--on-alarm-active-color)"/>
		</symbol>
		<symbol id="icon-14-alarm-silenced-b">
			<g clip-path="url(#clip0_850_47505)">
				<path d="M13.3017 1.28413L12.8591 1.51681L13.3017 1.28413C12.752 0.238626 11.248 0.238621 10.6983 1.28413L11.1314 1.51182L10.6983 1.28413L0.668648 20.3609C0.154023 21.3397 0.872928 22.5 1.97033 22.5H22.0297C23.1271 22.5 23.846 21.3397 23.3314 20.3609L13.3017 1.28413Z" style="stroke: var(--element-neutral-color)" />
				<path d="M6.99848 10.8967L7.88021 10.015L17.3 19.2682L16.4183 20.1499L15.1363 18.868C14.4859 19.387 13.7168 19.7747 12.8788 19.9623V18.6741C13.3791 18.5303 13.8356 18.2864 14.2421 17.98L11.6281 15.366V19.487L8.50138 16.3603H6V12.6082H8.50138L8.68273 12.4206L6.99848 10.8967Z" style="fill: var(--element-neutral-color)" />
				<path d="M15.7491 15.9476C15.9117 15.4911 16.0055 14.9971 16.0055 14.4843C16.0055 12.5019 14.6861 10.826 12.8788 10.2882V9C15.3864 9.56906 17.2562 11.8078 17.2562 14.4843C17.2562 15.3535 17.0561 16.1727 16.7059 16.9044L15.7491 15.9476Z" style="fill: var(--element-neutral-color)" />
				<path d="M12.8788 11.9641C13.8043 12.4269 14.4422 13.3774 14.4422 14.4843C14.4422 14.5343 14.4359 14.5843 14.4297 14.6344L12.8788 13.0835V11.9641Z" style="fill: var(--element-neutral-color)" />
				<path d="M10.4525 10.6572L11.6281 9.48152V11.8328L10.4525 10.6572Z" style="fill: var(--element-neutral-color)" />
			</g>
			<defs>
				<clipPath id="clip0_850_47505">
				<rect width="24" height="24" fill="none"/>
				</clipPath>
			</defs>
		</symbol>
		<symbol id="icon-14-alarm-unack-a">
			<path d="M11.1409 1.51681C11.5032 0.82773 12.4968 0.827732 12.8591 1.51681L22.8888 20.5936C23.2254 21.2338 22.7573 22 22.0297 22H1.97033C1.24266 22 0.774615 21.2338 1.11121 20.5936L11.1409 1.51681Z" fill="var(--alarm-enabled-background-color)"/>
			<path d="M8.50855 16.3814L11.6442 19.5171V9.4829L8.50855 12.6186H6V16.3814H8.50855Z" style="fill: var(--on-alarm-active-color)"/>
			<path d="M14.4664 14.5C14.4664 13.39 13.8267 12.4367 12.8985 11.9726V17.0211C13.8267 16.5633 14.4664 15.61 14.4664 14.5Z" style="fill: var(--on-alarm-active-color)"/>
			<path d="M12.8985 10.2919C14.7109 10.8312 16.0342 12.512 16.0342 14.5C16.0342 16.488 14.7109 18.1688 12.8985 18.7081V20C15.4133 19.4293 17.2885 17.1842 17.2885 14.5C17.2885 11.8159 15.4133 9.5707 12.8985 9V10.2919Z" style="fill: var(--on-alarm-active-color)"/>
		</symbol>
		<symbol id="icon-14-alarm-unack-b">
			<g clip-path="url(#clip0_850_47508)">
				<path d="M13.3017 1.28413L12.8591 1.51681L13.3017 1.28413C12.752 0.238626 11.248 0.238621 10.6983 1.28413L11.1314 1.51182L10.6983 1.28413L0.668648 20.3609C0.154023 21.3397 0.872928 22.5 1.97033 22.5H22.0297C23.1271 22.5 23.846 21.3397 23.3314 20.3609L13.3017 1.28413Z" style="stroke: var(--element-neutral-color)" />
				<path d="M8.50855 16.3814L11.6442 19.5171V9.4829L8.50855 12.6186H6V16.3814H8.50855Z" style="fill: var(--element-neutral-color)" />
				<path d="M14.4664 14.5C14.4664 13.39 13.8267 12.4367 12.8985 11.9726V17.0211C13.8267 16.5633 14.4664 15.61 14.4664 14.5Z" style="fill: var(--element-neutral-color)" />
				<path d="M12.8985 10.2919C14.7109 10.8312 16.0342 12.512 16.0342 14.5C16.0342 16.488 14.7109 18.1688 12.8985 18.7081V20C15.4133 19.4293 17.2885 17.1842 17.2885 14.5C17.2885 11.8159 15.4133 9.5707 12.8985 9V10.2919Z" style="fill: var(--element-neutral-color)" />
			</g>
			<defs>
				<clipPath id="clip0_850_47508">
				<rect width="24" height="24" fill="none"/>
				</clipPath>
			</defs>
		</symbol>
		<symbol id="icon-14-warning-unack-a">
			<circle cx="12" cy="12" r="10.5" style="fill: var(--warning-enabled-background-color) stroke: var(--element-active-color)"/>
			<path d="M8.50855 13.8814L11.6442 17.0171V6.9829L8.50855 10.1186H6V13.8814H8.50855Z" style="fill: var(--on-warning-active-color)" />
			<path d="M14.4664 12C14.4664 10.89 13.8267 9.93672 12.8985 9.47263V14.5211C13.8267 14.0633 14.4664 13.11 14.4664 12Z" style="fill: var(--on-warning-active-color)" />
			<path d="M12.8985 7.7919C14.7109 8.33124 16.0342 10.012 16.0342 12C16.0342 13.988 14.7109 15.6688 12.8985 16.2081V17.5C15.4133 16.9293 17.2885 14.6842 17.2885 12C17.2885 9.31585 15.4133 7.0707 12.8985 6.5V7.7919Z" style="fill: var(--on-warning-active-color)" />
		</symbol>
		<symbol id="icon-14-warning-unack-b">
			<circle cx="12" cy="12" r="10.5" style="stroke: var(--element-neutral-color)" />
			<path d="M8.50855 13.8814L11.6442 17.0171V6.9829L8.50855 10.1186H6V13.8814H8.50855Z" style="fill: var(--element-neutral-color)" />
			<path d="M14.4664 12C14.4664 10.89 13.8267 9.93672 12.8985 9.47263V14.5211C13.8267 14.0633 14.4664 13.11 14.4664 12Z" style="fill: var(--element-neutral-color)" />
			<path d="M12.8985 7.7919C14.7109 8.33124 16.0342 10.012 16.0342 12C16.0342 13.988 14.7109 15.6688 12.8985 16.2081V17.5C15.4133 16.9293 17.2885 14.6842 17.2885 12C17.2885 9.31585 15.4133 7.0707 12.8985 6.5V7.7919Z" style="fill: var(--element-neutral-color)" />
		</symbol>
	</defs>
</svg>
